<svg xmlns="http://www.w3.org/2000/svg" xmlns:xlink="http://www.w3.org/1999/xlink" width="540" height="494.2"><rect width="540" height="494.2" rx="5" ry="5" class="a"/><svg y="0%" x="0%"><circle cx="20" cy="20" r="6" fill="#ff5f58"/><circle cx="40" cy="20" r="6" fill="#ffbd2e"/><circle cx="60" cy="20" r="6" fill="#18c132"/></svg><svg height="434.2" viewBox="0 0 50 43.42" width="500" x="15" xmlns="http://www.w3.org/2000/svg" xmlns:xlink="http://www.w3.org/1999/xlink" y="50"><style>@keyframes o{0%{transform:translateX(0)}3.9%{transform:translateX(-100px)}4%{transform:translateX(-250px)}8%{transform:translateX(-300px)}10.4%{transform:translateX(-350px)}11.7%{transform:translateX(-400px)}12.6%{transform:translateX(-450px)}14.4%{transform:translateX(-500px)}15%{transform:translateX(-550px)}16.1%{transform:translateX(-600px)}17.1%{transform:translateX(-650px)}17.7%{transform:translateX(-700px)}19.1%{transform:translateX(-750px)}20.6%{transform:translateX(-800px)}21.5%{transform:translateX(-850px)}23.4%{transform:translateX(-900px)}25.2%{transform:translateX(-950px)}26%{transform:translateX(-1000px)}27.8%{transform:translateX(-1050px)}28.9%{transform:translateX(-1100px)}30.2%{transform:translateX(-1150px)}30.8%{transform:translateX(-1200px)}31.6%{transform:translateX(-1250px)}32.9%{transform:translateX(-1300px)}34.5%{transform:translateX(-1350px)}35.2%{transform:translateX(-1400px)}37.8%{transform:translateX(-1450px)}41.7%{transform:translateX(-1500px)}44%{transform:translateX(-1550px)}46.2%{transform:translateX(-1600px)}47.9%{transform:translateX(-1650px)}49.5%{transform:translateX(-1700px)}57%{transform:translateX(-1850px)}62.9%{transform:translateX(-1950px)}63.3%{transform:translateX(-2000px)}63.7%{transform:translateX(-2050px)}64.3%{transform:translateX(-2100px)}64.7%{transform:translateX(-2150px)}65.1%{transform:translateX(-2200px)}65.5%{transform:translateX(-2250px)}66%{transform:translateX(-2300px)}66.4%{transform:translateX(-2350px)}66.8%{transform:translateX(-2400px)}67.2%{transform:translateX(-2450px)}67.6%{transform:translateX(-2500px)}68.1%{transform:translateX(-2550px)}68.5%{transform:translateX(-2600px)}68.9%{transform:translateX(-2650px)}69.3%{transform:translateX(-2700px)}69.7%{transform:translateX(-2750px)}70.2%{transform:translateX(-2800px)}70.6%{transform:translateX(-2850px)}71%{transform:translateX(-2900px)}71.5%{transform:translateX(-2950px)}71.9%{transform:translateX(-3000px)}72.3%{transform:translateX(-3050px)}72.7%{transform:translateX(-3100px)}73.2%{transform:translateX(-3150px)}73.6%{transform:translateX(-3200px)}74.1%{transform:translateX(-3250px)}74.5%{transform:translateX(-3300px)}75%{transform:translateX(-3350px)}75.4%{transform:translateX(-3400px)}75.9%{transform:translateX(-3450px)}76.4%{transform:translateX(-3500px)}76.8%{transform:translateX(-3550px)}77.1%{transform:translateX(-3600px)}77.4%{transform:translateX(-3650px)}77.9%{transform:translateX(-3800px)}78.4%{transform:translateX(-4000px)}to{transform:translateX(-4050px)}}.a{fill:#282d35}.h{fill:#a8cc8c;font-weight:700}.h,.i,.j{white-space:pre}.i{fill:#66c2cd;font-weight:700}.j{fill:#b9c0cb}</style><g font-family="Monaco,Consolas,Menlo,'Bitstream Vera Sans Mono','Powerline Symbols',monospace" font-size="1.67"><defs><symbol id="1"><path fill="#b9c0cb" d="M0 0h1v2.171H0z"/><text y="1.67" style="white-space:pre" fill="#282d35" font-weight="700">%</text></symbol><symbol id="2"><text y="1.67" class="h">➜</text><text x="3.006" y="1.67" class="i">~</text></symbol><symbol id="3"><text y="1.67" class="h">➜</text><text x="3.006" y="1.67" class="i">~</text><text x="5.01" y="1.67" class="j">npx</text></symbol><symbol id="4"><text y="1.67" class="h">➜</text><text x="3.006" y="1.67" class="i">~</text><text x="5.01" y="1.67" class="j">npx</text><text x="9.018" y="1.67" class="j">theme-color-shades</text></symbol><symbol id="5"><text y="1.67" class="h">➜</text><text x="3.006" y="1.67" class="i">~</text><text x="5.01" y="1.67" class="j">npx</text><text x="9.018" y="1.67" class="j">theme-color-shades</text><text x="28.056" y="1.67" class="j">a12345</text></symbol><symbol id="6"><text y="1.67" class="j">[..................]</text><text x="21.042" y="1.67" class="j">/</text><text x="23.046" y="1.67" class="j">rollbackFailedOptional:</text><text x="47.094" y="1.67" class="j">ver</text></symbol><symbol id="7"><text y="1.67" class="j">b</text><text x="2.004" y="1.67" class="j">npm-session</text><text x="14.028" y="1.67" class="j">3e</text></symbol><symbol id="8"><text y="1.67" class="j">[..................]</text><text x="21.042" y="1.67" class="j">\</text><text x="23.046" y="1.67" class="j">fetchMetadata:</text><text x="38.076" y="1.67" class="j">sill</text><text x="43.086" y="1.67" class="j">resolve</text></symbol><symbol id="9"><text y="1.67" class="j">WithNewModule</text><text x="14.028" y="1.67" class="j">th</text></symbol><symbol id="10"><text y="1.67" class="j">[..................]</text><text x="21.042" y="1.67" class="j">|</text><text x="23.046" y="1.67" class="j">fetchMetadata:</text><text x="38.076" y="1.67" class="j">sill</text><text x="43.086" y="1.67" class="j">resolve</text></symbol><symbol id="11"><text y="1.67" class="j">WithNewModule</text><text x="14.028" y="1.67" class="j">@o</text></symbol><symbol id="12"><text y="1.67" class="j">WithNewModule</text><text x="14.028" y="1.67" class="j">in</text></symbol><symbol id="13"><text y="1.67" class="j">WithNewModule</text><text x="14.028" y="1.67" class="j">an</text></symbol><symbol id="14"><text y="1.67" class="j">[..................]</text><text x="21.042" y="1.67" class="j">-</text><text x="23.046" y="1.67" class="j">fetchMetadata:</text><text x="38.076" y="1.67" class="j">sill</text><text x="43.086" y="1.67" class="j">resolve</text></symbol><symbol id="15"><text y="1.67" class="j">[..................]</text><text x="21.042" y="1.67" class="j">|</text><text x="23.046" y="1.67" class="j">loadDep:tslib:</text><text x="38.076" y="1.67" class="j">sill</text><text x="43.086" y="1.67" class="j">resolve</text></symbol><symbol id="16"><text y="1.67" class="j">[..................]</text><text x="21.042" y="1.67" class="j">/</text><text x="23.046" y="1.67" class="j">fetchMetadata:</text><text x="38.076" y="1.67" class="j">sill</text><text x="43.086" y="1.67" class="j">resolve</text></symbol><symbol id="17"><text y="1.67" class="j">WithNewModule</text><text x="14.028" y="1.67" class="j">su</text></symbol><symbol id="18"><text y="1.67" class="j">[..................]</text><text x="21.042" y="1.67" class="j">\</text><text x="23.046" y="1.67" class="j">loadDep:wrap-ansi:</text><text x="42.084" y="1.67" class="j">sill</text><text x="47.094" y="1.67" class="j">res</text></symbol><symbol id="19"><text y="1.67" class="j">olveWithNewModul</text></symbol><symbol id="20"><text y="1.67" class="j">[..................]</text><text x="21.042" y="1.67" class="j">|</text><text x="23.046" y="1.67" class="j">loadDep:wrap-ansi:</text><text x="42.084" y="1.67" class="j">sill</text><text x="47.094" y="1.67" class="j">res</text></symbol><symbol id="21"><text y="1.67" class="j">[#.................]</text><text x="21.042" y="1.67" class="j">|</text><text x="23.046" y="1.67" class="j">loadDep:tinycolor2:</text><text x="43.086" y="1.67" class="j">sill</text><text x="48.096" y="1.67" class="j">re</text></symbol><symbol id="22"><text y="1.67" class="j">[##................]</text><text x="21.042" y="1.67" class="j">\</text><text x="23.046" y="1.67" class="j">fetchMetadata:</text><text x="38.076" y="1.67" class="j">sill</text><text x="43.086" y="1.67" class="j">resolve</text></symbol><symbol id="23"><text y="1.67" class="j">[##................]</text><text x="21.042" y="1.67" class="j">/</text><text x="23.046" y="1.67" class="j">fetchMetadata:</text><text x="38.076" y="1.67" class="j">sill</text><text x="43.086" y="1.67" class="j">resolve</text></symbol><symbol id="24"><text y="1.67" class="j">[#######...........]</text><text x="21.042" y="1.67" class="j">-</text><text x="23.046" y="1.67" class="j">postinstall:</text><text x="36.072" y="1.67" class="j">sill</text><text x="41.082" y="1.67" class="j">install</text><text x="49.098" y="1.67" class="j">e</text></symbol><symbol id="25"><text y="1.67" class="j">[#######...........]</text><text x="21.042" y="1.67" class="j">|</text><text x="23.046" y="1.67" class="j">extract:theme-color-shades:</text></symbol><symbol id="26"><text x="1.002" y="1.67" class="j">verb</text><text x="6.012" y="1.67" class="j">lock</text><text x="11.022" y="1.67" class="j">using</text></symbol><symbol id="27"><text y="1.67" class="j">[############......]</text><text x="21.042" y="1.67" class="j">-</text><text x="23.046" y="1.67" class="j">finalize:color-name:</text><text x="44.088" y="1.67" class="j">sill</text><text x="49.098" y="1.67" class="j">f</text></symbol><symbol id="28"><text y="1.67" class="j">[############......]</text><text x="21.042" y="1.67" class="j">/</text><text x="23.046" y="1.67" class="j">refresh-package-json:theme-</text></symbol><symbol id="29"><text y="1.67" class="j">color-shades:</text><text x="14.028" y="1.67" class="j">ti</text></symbol><symbol id="30"><text y="1.67" class="j">npx:</text><text x="5.01" y="1.67" class="j">instalou</text><text x="14.028" y="1.67" class="j">51</text><text x="17.034" y="1.67" class="j">em</text><text x="20.04" y="1.67" class="j">2.378s</text></symbol><symbol id="31"><text y="1.67" class="j">Theme</text><text x="6.012" y="1.67" class="j">Color</text><text x="12.024" y="1.67" class="j">Shades</text><text x="19.038" y="1.67" class="j">0.1.5</text></symbol><symbol id="32"><text y="1.67" class="j">Hello!</text><text x="7.014" y="1.67" class="j">Here</text><text x="12.024" y="1.67" class="j">is</text><text x="15.03" y="1.67" class="j">your</text><text x="20.04" y="1.67" class="j">requested</text><text x="30.06" y="1.67" class="j">shades</text><text x="37.074" y="1.67" class="j">using</text><path fill="#a12345" d="M43.086 0h6v2.171h-6z"/><text x="43.086" y="1.67" style="white-space:pre" fill="#282d35">a12345</text></symbol><symbol id="33"><text y="1.67" class="j">as</text><text x="3.006" y="1.67" class="j">reference:</text></symbol><symbol id="34"><text y="1.67" class="j">{</text></symbol><symbol id="35"><text x="2.004" y="1.67" class="j">&quot;50&quot;:</text><text x="8.016" y="1.67" class="j">&quot;#fce8f0&quot;,</text></symbol><symbol id="36"><text x="2.004" y="1.67" class="j">&quot;100&quot;:</text><text x="9.018" y="1.67" class="j">&quot;#f5bcd1&quot;,</text></symbol><symbol id="37"><text x="2.004" y="1.67" class="j">&quot;200&quot;:</text><text x="9.018" y="1.67" class="j">&quot;#eb93b0&quot;,</text></symbol><symbol id="38"><text x="2.004" y="1.67" class="j">&quot;300&quot;:</text><text x="9.018" y="1.67" class="j">&quot;#dc6f90&quot;,</text></symbol><symbol id="39"><text x="2.004" y="1.67" class="j">&quot;400&quot;:</text><text x="9.018" y="1.67" class="j">&quot;#cf496d&quot;,</text></symbol><symbol id="40"><text x="2.004" y="1.67" class="j">&quot;500&quot;:</text><text x="9.018" y="1.67" class="j">&quot;#b63054&quot;,</text></symbol><symbol id="41"><text x="2.004" y="1.67" class="j">&quot;600&quot;:</text><text x="9.018" y="1.67" class="j">&quot;#90233d&quot;,</text></symbol><symbol id="42"><text x="2.004" y="1.67" class="j">&quot;700&quot;:</text><text x="9.018" y="1.67" class="j">&quot;#6c1426&quot;,</text></symbol><symbol id="43"><text x="2.004" y="1.67" class="j">&quot;800&quot;:</text><text x="9.018" y="1.67" class="j">&quot;#430a14&quot;,</text></symbol><symbol id="44"><text x="2.004" y="1.67" class="j">&quot;900&quot;:</text><text x="9.018" y="1.67" class="j">&quot;#170306&quot;</text></symbol><symbol id="45"><text y="1.67" class="j">}</text></symbol><symbol id="46"><text y="1.67" class="j">Wanna</text><text x="6.012" y="1.67" class="j">see</text><text x="10.02" y="1.67" class="j">how</text><text x="14.028" y="1.67" class="j">these</text><text x="20.04" y="1.67" class="j">shades</text><text x="27.054" y="1.67" class="j">play</text><text x="32.064" y="1.67" class="j">out</text><text x="36.072" y="1.67" class="j">in</text><text x="39.078" y="1.67" class="j">some</text><text x="44.088" y="1.67" class="j">compon</text></symbol><symbol id="47"><text y="1.67" class="j">ents</text><text x="5.01" y="1.67" class="j">before</text><text x="12.024" y="1.67" class="j">using?</text></symbol><symbol id="48"><text y="1.67" class="j">Check</text><text x="6.012" y="1.67" class="j">it</text><text x="9.018" y="1.67" class="j">out</text><text x="13.026" y="1.67" class="j">here:</text><text x="19.038" y="1.67" class="j">https://themecolorshades.com/co</text></symbol><symbol id="49"><text y="1.67" class="j">mponents/?color=a12345</text></symbol><symbol id="a"><path fill="transparent" d="M0 0h50v21H0z"/></symbol><symbol id="b"><path fill="#6f7683" d="M0 0h1.102v2.171H0z"/></symbol></defs><path class="a" d="M0 0h50v43.42H0z"/><g style="animation-duration:11.95073s;animation-iteration-count:infinite;animation-name:o;animation-timing-function:steps(1,end)"><svg width="4100"><svg><use xlink:href="#a"/><use xlink:href="#b" x="-.004"/></svg><svg x="50"><use xlink:href="#a"/><use xlink:href="#b" x="-.004" y="2.146"/><use xlink:href="#1"/></svg><svg x="100"><use xlink:href="#a"/><use xlink:href="#b" x="-.004" y="2.146"/><use xlink:href="#1"/></svg><svg x="150"><use xlink:href="#a"/><use xlink:href="#b" x="4.996" y="2.146"/><use xlink:href="#1"/><use xlink:href="#2" y="2.171"/></svg><svg x="200"><use xlink:href="#a"/><use xlink:href="#b" x="4.996" y="2.146"/><use xlink:href="#1"/><use xlink:href="#2" y="2.171"/></svg><svg x="250"><use xlink:href="#a"/><use xlink:href="#b" x="4.996" y="2.146"/><use xlink:href="#1"/><use xlink:href="#2" y="2.171"/></svg><svg x="300"><use xlink:href="#a"/><use xlink:href="#b" x="5.996" y="2.146"/><use xlink:href="#1"/><text y="3.841" class="h">➜</text><text x="3.006" y="3.841" class="i">~</text><text x="5.01" y="3.841" class="j">n</text></svg><svg x="350"><use xlink:href="#a"/><use xlink:href="#b" x="6.996" y="2.146"/><use xlink:href="#1"/><text y="3.841" class="h">➜</text><text x="3.006" y="3.841" class="i">~</text><text x="5.01" y="3.841" class="j">np</text></svg><svg x="400"><use xlink:href="#a"/><use xlink:href="#b" x="7.996" y="2.146"/><use xlink:href="#1"/><use xlink:href="#3" y="2.171"/></svg><svg x="450"><use xlink:href="#a"/><use xlink:href="#b" x="8.996" y="2.146"/><use xlink:href="#1"/><use xlink:href="#3" y="2.171"/></svg><svg x="500"><use xlink:href="#a"/><use xlink:href="#b" x="9.996" y="2.146"/><use xlink:href="#1"/><text y="3.841" class="h">➜</text><text x="3.006" y="3.841" class="i">~</text><text x="5.01" y="3.841" class="j">npx</text><text x="9.018" y="3.841" class="j">t</text></svg><svg x="550"><use xlink:href="#a"/><use xlink:href="#b" x="10.996" y="2.146"/><use xlink:href="#1"/><text y="3.841" class="h">➜</text><text x="3.006" y="3.841" class="i">~</text><text x="5.01" y="3.841" class="j">npx</text><text x="9.018" y="3.841" class="j">th</text></svg><svg x="600"><use xlink:href="#a"/><use xlink:href="#b" x="11.996" y="2.146"/><use xlink:href="#1"/><text y="3.841" class="h">➜</text><text x="3.006" y="3.841" class="i">~</text><text x="5.01" y="3.841" class="j">npx</text><text x="9.018" y="3.841" class="j">the</text></svg><svg x="650"><use xlink:href="#a"/><use xlink:href="#b" x="12.996" y="2.146"/><use xlink:href="#1"/><text y="3.841" class="h">➜</text><text x="3.006" y="3.841" class="i">~</text><text x="5.01" y="3.841" class="j">npx</text><text x="9.018" y="3.841" class="j">them</text></svg><svg x="700"><use xlink:href="#a"/><use xlink:href="#b" x="13.996" y="2.146"/><use xlink:href="#1"/><text y="3.841" class="h">➜</text><text x="3.006" y="3.841" class="i">~</text><text x="5.01" y="3.841" class="j">npx</text><text x="9.018" y="3.841" class="j">theme</text></svg><svg x="750"><use xlink:href="#a"/><use xlink:href="#b" x="14.996" y="2.146"/><use xlink:href="#1"/><text y="3.841" class="h">➜</text><text x="3.006" y="3.841" class="i">~</text><text x="5.01" y="3.841" class="j">npx</text><text x="9.018" y="3.841" class="j">theme-</text></svg><svg x="800"><use xlink:href="#a"/><use xlink:href="#b" x="15.996" y="2.146"/><use xlink:href="#1"/><text y="3.841" class="h">➜</text><text x="3.006" y="3.841" class="i">~</text><text x="5.01" y="3.841" class="j">npx</text><text x="9.018" y="3.841" class="j">theme-c</text></svg><svg x="850"><use xlink:href="#a"/><use xlink:href="#b" x="16.996" y="2.146"/><use xlink:href="#1"/><text y="3.841" class="h">➜</text><text x="3.006" y="3.841" class="i">~</text><text x="5.01" y="3.841" class="j">npx</text><text x="9.018" y="3.841" class="j">theme-co</text></svg><svg x="900"><use xlink:href="#a"/><use xlink:href="#b" x="17.996" y="2.146"/><use xlink:href="#1"/><text y="3.841" class="h">➜</text><text x="3.006" y="3.841" class="i">~</text><text x="5.01" y="3.841" class="j">npx</text><text x="9.018" y="3.841" class="j">theme-col</text></svg><svg x="950"><use xlink:href="#a"/><use xlink:href="#b" x="18.996" y="2.146"/><use xlink:href="#1"/><text y="3.841" class="h">➜</text><text x="3.006" y="3.841" class="i">~</text><text x="5.01" y="3.841" class="j">npx</text><text x="9.018" y="3.841" class="j">theme-colo</text></svg><svg x="1000"><use xlink:href="#a"/><use xlink:href="#b" x="19.996" y="2.146"/><use xlink:href="#1"/><text y="3.841" class="h">➜</text><text x="3.006" y="3.841" class="i">~</text><text x="5.01" y="3.841" class="j">npx</text><text x="9.018" y="3.841" class="j">theme-color</text></svg><svg x="1050"><use xlink:href="#a"/><use xlink:href="#b" x="20.996" y="2.146"/><use xlink:href="#1"/><text y="3.841" class="h">➜</text><text x="3.006" y="3.841" class="i">~</text><text x="5.01" y="3.841" class="j">npx</text><text x="9.018" y="3.841" class="j">theme-color-</text></svg><svg x="1100"><use xlink:href="#a"/><use xlink:href="#b" x="21.996" y="2.146"/><use xlink:href="#1"/><text y="3.841" class="h">➜</text><text x="3.006" y="3.841" class="i">~</text><text x="5.01" y="3.841" class="j">npx</text><text x="9.018" y="3.841" class="j">theme-color-s</text></svg><svg x="1150"><use xlink:href="#a"/><use xlink:href="#b" x="22.996" y="2.146"/><use xlink:href="#1"/><text y="3.841" class="h">➜</text><text x="3.006" y="3.841" class="i">~</text><text x="5.01" y="3.841" class="j">npx</text><text x="9.018" y="3.841" class="j">theme-color-sh</text></svg><svg x="1200"><use xlink:href="#a"/><use xlink:href="#b" x="23.996" y="2.146"/><use xlink:href="#1"/><text y="3.841" class="h">➜</text><text x="3.006" y="3.841" class="i">~</text><text x="5.01" y="3.841" class="j">npx</text><text x="9.018" y="3.841" class="j">theme-color-sha</text></svg><svg x="1250"><use xlink:href="#a"/><use xlink:href="#b" x="24.996" y="2.146"/><use xlink:href="#1"/><text y="3.841" class="h">➜</text><text x="3.006" y="3.841" class="i">~</text><text x="5.01" y="3.841" class="j">npx</text><text x="9.018" y="3.841" class="j">theme-color-shad</text></svg><svg x="1300"><use xlink:href="#a"/><use xlink:href="#b" x="25.996" y="2.146"/><use xlink:href="#1"/><text y="3.841" class="h">➜</text><text x="3.006" y="3.841" class="i">~</text><text x="5.01" y="3.841" class="j">npx</text><text x="9.018" y="3.841" class="j">theme-color-shade</text></svg><svg x="1350"><use xlink:href="#a"/><use xlink:href="#b" x="26.996" y="2.146"/><use xlink:href="#1"/><use xlink:href="#4" y="2.171"/></svg><svg x="1400"><use xlink:href="#a"/><use xlink:href="#b" x="27.996" y="2.146"/><use xlink:href="#1"/><use xlink:href="#4" y="2.171"/></svg><svg x="1450"><use xlink:href="#a"/><use xlink:href="#b" x="28.996" y="2.146"/><use xlink:href="#1"/><text y="3.841" class="h">➜</text><text x="3.006" y="3.841" class="i">~</text><text x="5.01" y="3.841" class="j">npx</text><text x="9.018" y="3.841" class="j">theme-color-shades</text><text x="28.056" y="3.841" class="j">a</text></svg><svg x="1500"><use xlink:href="#a"/><use xlink:href="#b" x="29.996" y="2.146"/><use xlink:href="#1"/><text y="3.841" class="h">➜</text><text x="3.006" y="3.841" class="i">~</text><text x="5.01" y="3.841" class="j">npx</text><text x="9.018" y="3.841" class="j">theme-color-shades</text><text x="28.056" y="3.841" class="j">a1</text></svg><svg x="1550"><use xlink:href="#a"/><use xlink:href="#b" x="30.996" y="2.146"/><use xlink:href="#1"/><text y="3.841" class="h">➜</text><text x="3.006" y="3.841" class="i">~</text><text x="5.01" y="3.841" class="j">npx</text><text x="9.018" y="3.841" class="j">theme-color-shades</text><text x="28.056" y="3.841" class="j">a12</text></svg><svg x="1600"><use xlink:href="#a"/><use xlink:href="#b" x="31.996" y="2.146"/><use xlink:href="#1"/><text y="3.841" class="h">➜</text><text x="3.006" y="3.841" class="i">~</text><text x="5.01" y="3.841" class="j">npx</text><text x="9.018" y="3.841" class="j">theme-color-shades</text><text x="28.056" y="3.841" class="j">a123</text></svg><svg x="1650"><use xlink:href="#a"/><use xlink:href="#b" x="32.996" y="2.146"/><use xlink:href="#1"/><text y="3.841" class="h">➜</text><text x="3.006" y="3.841" class="i">~</text><text x="5.01" y="3.841" class="j">npx</text><text x="9.018" y="3.841" class="j">theme-color-shades</text><text x="28.056" y="3.841" class="j">a1234</text></svg><svg x="1700"><use xlink:href="#a"/><use xlink:href="#b" x="33.996" y="2.146"/><use xlink:href="#1"/><use xlink:href="#5" y="2.171"/></svg><svg x="1750"><use xlink:href="#a"/><use xlink:href="#b" x="33.996" y="2.146"/><use xlink:href="#1"/><use xlink:href="#5" y="2.171"/></svg><svg x="1800"><use xlink:href="#a"/><use xlink:href="#b" x="-.004" y="4.317"/><use xlink:href="#1"/><use xlink:href="#5" y="2.171"/></svg><svg x="1850"><use xlink:href="#a"/><use xlink:href="#b" x="-.004" y="4.317"/><use xlink:href="#1"/><use xlink:href="#5" y="2.171"/></svg><svg x="1900"><use xlink:href="#a"/><use xlink:href="#1"/><use xlink:href="#5" y="2.171"/></svg><svg x="1950"><use xlink:href="#a"/><use xlink:href="#1"/><use xlink:href="#5" y="2.171"/><use xlink:href="#6" y="4.342"/><use xlink:href="#7" y="6.513"/></svg><svg x="2000"><use xlink:href="#a"/><use xlink:href="#1"/><use xlink:href="#5" y="2.171"/><use xlink:href="#6" y="4.342"/><use xlink:href="#6" y="6.513"/><use xlink:href="#7" y="8.684"/></svg><svg x="2050"><use xlink:href="#a"/><use xlink:href="#1"/><use xlink:href="#5" y="2.171"/><use xlink:href="#6" y="4.342"/><use xlink:href="#6" y="6.513"/><use xlink:href="#6" y="8.684"/><use xlink:href="#7" y="10.855"/></svg><svg x="2100"><use xlink:href="#a"/><use xlink:href="#1"/><use xlink:href="#5" y="2.171"/><use xlink:href="#6" y="4.342"/><use xlink:href="#6" y="6.513"/><use xlink:href="#6" y="8.684"/><use xlink:href="#8" y="10.855"/><use xlink:href="#9" y="13.026"/></svg><svg x="2150"><use xlink:href="#a"/><use xlink:href="#1"/><use xlink:href="#5" y="2.171"/><use xlink:href="#6" y="4.342"/><use xlink:href="#6" y="6.513"/><use xlink:href="#6" y="8.684"/><use xlink:href="#8" y="10.855"/><use xlink:href="#8" y="13.026"/><use xlink:href="#9" y="15.197"/></svg><svg x="2200"><use xlink:href="#a"/><use xlink:href="#1"/><use xlink:href="#5" y="2.171"/><use xlink:href="#6" y="4.342"/><use xlink:href="#6" y="6.513"/><use xlink:href="#6" y="8.684"/><use xlink:href="#8" y="10.855"/><use xlink:href="#8" y="13.026"/><use xlink:href="#8" y="15.197"/><use xlink:href="#9" y="17.368"/></svg><svg x="2250"><use xlink:href="#a"/><use xlink:href="#1"/><use xlink:href="#5" y="2.171"/><use xlink:href="#6" y="4.342"/><use xlink:href="#6" y="6.513"/><use xlink:href="#6" y="8.684"/><use xlink:href="#8" y="10.855"/><use xlink:href="#8" y="13.026"/><use xlink:href="#8" y="15.197"/><use xlink:href="#10" y="17.368"/><use xlink:href="#11" y="19.539"/></svg><svg x="2300"><use xlink:href="#a"/><use xlink:href="#1"/><use xlink:href="#5" y="2.171"/><use xlink:href="#6" y="4.342"/><use xlink:href="#6" y="6.513"/><use xlink:href="#6" y="8.684"/><use xlink:href="#8" y="10.855"/><use xlink:href="#8" y="13.026"/><use xlink:href="#8" y="15.197"/><use xlink:href="#10" y="17.368"/><use xlink:href="#10" y="19.539"/><use xlink:href="#11" y="21.71"/></svg><svg x="2350"><use xlink:href="#a"/><use xlink:href="#1"/><use xlink:href="#5" y="2.171"/><use xlink:href="#6" y="4.342"/><use xlink:href="#6" y="6.513"/><use xlink:href="#6" y="8.684"/><use xlink:href="#8" y="10.855"/><use xlink:href="#8" y="13.026"/><use xlink:href="#8" y="15.197"/><use xlink:href="#10" y="17.368"/><use xlink:href="#10" y="19.539"/><use xlink:href="#8" y="21.71"/><text y="25.551" class="j">WithNewModule</text><text x="14.028" y="25.551" class="j">de</text></svg><svg x="2400"><use xlink:href="#a"/><use xlink:href="#1"/><use xlink:href="#5" y="2.171"/><use xlink:href="#6" y="4.342"/><use xlink:href="#6" y="6.513"/><use xlink:href="#6" y="8.684"/><use xlink:href="#8" y="10.855"/><use xlink:href="#8" y="13.026"/><use xlink:href="#8" y="15.197"/><use xlink:href="#10" y="17.368"/><use xlink:href="#10" y="19.539"/><use xlink:href="#8" y="21.71"/><use xlink:href="#8" y="23.881"/><use xlink:href="#12" y="26.052"/></svg><svg x="2450"><use xlink:href="#a"/><use xlink:href="#1"/><use xlink:href="#5" y="2.171"/><use xlink:href="#6" y="4.342"/><use xlink:href="#6" y="6.513"/><use xlink:href="#6" y="8.684"/><use xlink:href="#8" y="10.855"/><use xlink:href="#8" y="13.026"/><use xlink:href="#8" y="15.197"/><use xlink:href="#10" y="17.368"/><use xlink:href="#10" y="19.539"/><use xlink:href="#8" y="21.71"/><use xlink:href="#8" y="23.881"/><use xlink:href="#10" y="26.052"/><use xlink:href="#12" y="28.223"/></svg><svg x="2500"><use xlink:href="#a"/><use xlink:href="#1"/><use xlink:href="#5" y="2.171"/><use xlink:href="#6" y="4.342"/><use xlink:href="#6" y="6.513"/><use xlink:href="#6" y="8.684"/><use xlink:href="#8" y="10.855"/><use xlink:href="#8" y="13.026"/><use xlink:href="#8" y="15.197"/><use xlink:href="#10" y="17.368"/><use xlink:href="#10" y="19.539"/><use xlink:href="#8" y="21.71"/><use xlink:href="#8" y="23.881"/><use xlink:href="#10" y="26.052"/><use xlink:href="#8" y="28.223"/><use xlink:href="#13" y="30.394"/></svg><svg x="2550"><use xlink:href="#a"/><use xlink:href="#1"/><use xlink:href="#5" y="2.171"/><use xlink:href="#6" y="4.342"/><use xlink:href="#6" y="6.513"/><use xlink:href="#6" y="8.684"/><use xlink:href="#8" y="10.855"/><use xlink:href="#8" y="13.026"/><use xlink:href="#8" y="15.197"/><use xlink:href="#10" y="17.368"/><use xlink:href="#10" y="19.539"/><use xlink:href="#8" y="21.71"/><use xlink:href="#8" y="23.881"/><use xlink:href="#10" y="26.052"/><use xlink:href="#8" y="28.223"/><use xlink:href="#8" y="30.394"/><use xlink:href="#13" y="32.565"/></svg><svg x="2600"><use xlink:href="#a"/><use xlink:href="#1"/><use xlink:href="#5" y="2.171"/><use xlink:href="#6" y="4.342"/><use xlink:href="#6" y="6.513"/><use xlink:href="#6" y="8.684"/><use xlink:href="#8" y="10.855"/><use xlink:href="#8" y="13.026"/><use xlink:href="#8" y="15.197"/><use xlink:href="#10" y="17.368"/><use xlink:href="#10" y="19.539"/><use xlink:href="#8" y="21.71"/><use xlink:href="#8" y="23.881"/><use xlink:href="#10" y="26.052"/><use xlink:href="#8" y="28.223"/><use xlink:href="#8" y="30.394"/><use xlink:href="#14" y="32.565"/><text y="36.406" class="j">WithNewModule</text><text x="14.028" y="36.406" class="j">co</text></svg><svg x="2650"><use xlink:href="#a"/><use xlink:href="#1"/><use xlink:href="#5" y="2.171"/><use xlink:href="#6" y="4.342"/><use xlink:href="#6" y="6.513"/><use xlink:href="#6" y="8.684"/><use xlink:href="#8" y="10.855"/><use xlink:href="#8" y="13.026"/><use xlink:href="#8" y="15.197"/><use xlink:href="#10" y="17.368"/><use xlink:href="#10" y="19.539"/><use xlink:href="#8" y="21.71"/><use xlink:href="#8" y="23.881"/><use xlink:href="#10" y="26.052"/><use xlink:href="#8" y="28.223"/><use xlink:href="#8" y="30.394"/><use xlink:href="#14" y="32.565"/><use xlink:href="#10" y="34.736"/><use xlink:href="#13" y="36.907"/></svg><svg x="2700"><use xlink:href="#a"/><use xlink:href="#1"/><use xlink:href="#5" y="2.171"/><use xlink:href="#6" y="4.342"/><use xlink:href="#6" y="6.513"/><use xlink:href="#6" y="8.684"/><use xlink:href="#8" y="10.855"/><use xlink:href="#8" y="13.026"/><use xlink:href="#8" y="15.197"/><use xlink:href="#10" y="17.368"/><use xlink:href="#10" y="19.539"/><use xlink:href="#8" y="21.71"/><use xlink:href="#8" y="23.881"/><use xlink:href="#10" y="26.052"/><use xlink:href="#8" y="28.223"/><use xlink:href="#8" y="30.394"/><use xlink:href="#14" y="32.565"/><use xlink:href="#10" y="34.736"/><use xlink:href="#15" y="36.907"/><use xlink:href="#13" y="39.078"/></svg><svg x="2750"><use xlink:href="#a"/><use xlink:href="#1"/><use xlink:href="#5" y="2.171"/><use xlink:href="#6" y="4.342"/><use xlink:href="#6" y="6.513"/><use xlink:href="#6" y="8.684"/><use xlink:href="#8" y="10.855"/><use xlink:href="#8" y="13.026"/><use xlink:href="#8" y="15.197"/><use xlink:href="#10" y="17.368"/><use xlink:href="#10" y="19.539"/><use xlink:href="#8" y="21.71"/><use xlink:href="#8" y="23.881"/><use xlink:href="#10" y="26.052"/><use xlink:href="#8" y="28.223"/><use xlink:href="#8" y="30.394"/><use xlink:href="#14" y="32.565"/><use xlink:href="#10" y="34.736"/><use xlink:href="#15" y="36.907"/><use xlink:href="#8" y="39.078"/><use xlink:href="#11" y="41.249"/></svg><svg x="2800"><use xlink:href="#a"/><use xlink:href="#1"/><use xlink:href="#5" y="2.171"/><use xlink:href="#6" y="4.342"/><use xlink:href="#6" y="6.513"/><use xlink:href="#6" y="8.684"/><use xlink:href="#8" y="10.855"/><use xlink:href="#8" y="13.026"/><use xlink:href="#8" y="15.197"/><use xlink:href="#10" y="17.368"/><use xlink:href="#10" y="19.539"/><use xlink:href="#8" y="21.71"/><use xlink:href="#8" y="23.881"/><use xlink:href="#10" y="26.052"/><use xlink:href="#8" y="28.223"/><use xlink:href="#8" y="30.394"/><use xlink:href="#14" y="32.565"/><use xlink:href="#10" y="34.736"/><use xlink:href="#15" y="36.907"/><use xlink:href="#8" y="39.078"/><use xlink:href="#16" y="41.249"/><use xlink:href="#17" y="43.42"/></svg><svg x="2850"><use xlink:href="#a"/><use xlink:href="#5"/><use xlink:href="#6" y="2.171"/><use xlink:href="#6" y="4.342"/><use xlink:href="#6" y="6.513"/><use xlink:href="#8" y="8.684"/><use xlink:href="#8" y="10.855"/><use xlink:href="#8" y="13.026"/><use xlink:href="#10" y="15.197"/><use xlink:href="#10" y="17.368"/><use xlink:href="#8" y="19.539"/><use xlink:href="#8" y="21.71"/><use xlink:href="#10" y="23.881"/><use xlink:href="#8" y="26.052"/><use xlink:href="#8" y="28.223"/><use xlink:href="#14" y="30.394"/><use xlink:href="#10" y="32.565"/><use xlink:href="#15" y="34.736"/><use xlink:href="#8" y="36.907"/><use xlink:href="#16" y="39.078"/><use xlink:href="#10" y="41.249"/><text y="45.09" class="j">WithNewModule</text><text x="14.028" y="45.09" class="j">ha</text></svg><svg x="2900"><use xlink:href="#a"/><use xlink:href="#6"/><use xlink:href="#6" y="2.171"/><use xlink:href="#6" y="4.342"/><use xlink:href="#8" y="6.513"/><use xlink:href="#8" y="8.684"/><use xlink:href="#8" y="10.855"/><use xlink:href="#10" y="13.026"/><use xlink:href="#10" y="15.197"/><use xlink:href="#8" y="17.368"/><use xlink:href="#8" y="19.539"/><use xlink:href="#10" y="21.71"/><use xlink:href="#8" y="23.881"/><use xlink:href="#8" y="26.052"/><use xlink:href="#14" y="28.223"/><use xlink:href="#10" y="30.394"/><use xlink:href="#15" y="32.565"/><use xlink:href="#8" y="34.736"/><use xlink:href="#16" y="36.907"/><use xlink:href="#10" y="39.078"/><use xlink:href="#18" y="41.249"/><use xlink:href="#19" y="43.42"/></svg><svg x="2950"><use xlink:href="#a"/><use xlink:href="#6"/><use xlink:href="#6" y="2.171"/><use xlink:href="#8" y="4.342"/><use xlink:href="#8" y="6.513"/><use xlink:href="#8" y="8.684"/><use xlink:href="#10" y="10.855"/><use xlink:href="#10" y="13.026"/><use xlink:href="#8" y="15.197"/><use xlink:href="#8" y="17.368"/><use xlink:href="#10" y="19.539"/><use xlink:href="#8" y="21.71"/><use xlink:href="#8" y="23.881"/><use xlink:href="#14" y="26.052"/><use xlink:href="#10" y="28.223"/><use xlink:href="#15" y="30.394"/><use xlink:href="#8" y="32.565"/><use xlink:href="#16" y="34.736"/><use xlink:href="#10" y="36.907"/><use xlink:href="#18" y="39.078"/><use xlink:href="#20" y="41.249"/><use xlink:href="#19" y="43.42"/></svg><svg x="3000"><use xlink:href="#a"/><use xlink:href="#6"/><use xlink:href="#8" y="2.171"/><use xlink:href="#8" y="4.342"/><use xlink:href="#8" y="6.513"/><use xlink:href="#10" y="8.684"/><use xlink:href="#10" y="10.855"/><use xlink:href="#8" y="13.026"/><use xlink:href="#8" y="15.197"/><use xlink:href="#10" y="17.368"/><use xlink:href="#8" y="19.539"/><use xlink:href="#8" y="21.71"/><use xlink:href="#14" y="23.881"/><use xlink:href="#10" y="26.052"/><use xlink:href="#15" y="28.223"/><use xlink:href="#8" y="30.394"/><use xlink:href="#16" y="32.565"/><use xlink:href="#10" y="34.736"/><use xlink:href="#18" y="36.907"/><use xlink:href="#20" y="39.078"/><use xlink:href="#14" y="41.249"/><text y="45.09" class="j">WithNewModule</text><text x="14.028" y="45.09" class="j">lo</text></svg><svg x="3050"><use xlink:href="#a"/><use xlink:href="#8"/><use xlink:href="#8" y="2.171"/><use xlink:href="#8" y="4.342"/><use xlink:href="#10" y="6.513"/><use xlink:href="#10" y="8.684"/><use xlink:href="#8" y="10.855"/><use xlink:href="#8" y="13.026"/><use xlink:href="#10" y="15.197"/><use xlink:href="#8" y="17.368"/><use xlink:href="#8" y="19.539"/><use xlink:href="#14" y="21.71"/><use xlink:href="#10" y="23.881"/><use xlink:href="#15" y="26.052"/><use xlink:href="#8" y="28.223"/><use xlink:href="#16" y="30.394"/><use xlink:href="#10" y="32.565"/><use xlink:href="#18" y="34.736"/><use xlink:href="#20" y="36.907"/><use xlink:href="#14" y="39.078"/><use xlink:href="#21" y="41.249"/><text y="45.09" class="j">solveWithNewModu</text></svg><svg x="3100"><use xlink:href="#a"/><use xlink:href="#8"/><use xlink:href="#8" y="2.171"/><use xlink:href="#10" y="4.342"/><use xlink:href="#10" y="6.513"/><use xlink:href="#8" y="8.684"/><use xlink:href="#8" y="10.855"/><use xlink:href="#10" y="13.026"/><use xlink:href="#8" y="15.197"/><use xlink:href="#8" y="17.368"/><use xlink:href="#14" y="19.539"/><use xlink:href="#10" y="21.71"/><use xlink:href="#15" y="23.881"/><use xlink:href="#8" y="26.052"/><use xlink:href="#16" y="28.223"/><use xlink:href="#10" y="30.394"/><use xlink:href="#18" y="32.565"/><use xlink:href="#20" y="34.736"/><use xlink:href="#14" y="36.907"/><use xlink:href="#21" y="39.078"/><use xlink:href="#22" y="41.249"/><text y="45.09" class="j">WithNewModule</text><text x="14.028" y="45.09" class="j">do</text></svg><svg x="3150"><use xlink:href="#a"/><use xlink:href="#8"/><use xlink:href="#10" y="2.171"/><use xlink:href="#10" y="4.342"/><use xlink:href="#8" y="6.513"/><use xlink:href="#8" y="8.684"/><use xlink:href="#10" y="10.855"/><use xlink:href="#8" y="13.026"/><use xlink:href="#8" y="15.197"/><use xlink:href="#14" y="17.368"/><use xlink:href="#10" y="19.539"/><use xlink:href="#15" y="21.71"/><use xlink:href="#8" y="23.881"/><use xlink:href="#16" y="26.052"/><use xlink:href="#10" y="28.223"/><use xlink:href="#18" y="30.394"/><use xlink:href="#20" y="32.565"/><use xlink:href="#14" y="34.736"/><use xlink:href="#21" y="36.907"/><use xlink:href="#22" y="39.078"/><use xlink:href="#23" y="41.249"/><use xlink:href="#17" y="43.42"/></svg><svg x="3200"><use xlink:href="#a"/><use xlink:href="#10"/><use xlink:href="#10" y="2.171"/><use xlink:href="#8" y="4.342"/><use xlink:href="#8" y="6.513"/><use xlink:href="#10" y="8.684"/><use xlink:href="#8" y="10.855"/><use xlink:href="#8" y="13.026"/><use xlink:href="#14" y="15.197"/><use xlink:href="#10" y="17.368"/><use xlink:href="#15" y="19.539"/><use xlink:href="#8" y="21.71"/><use xlink:href="#16" y="23.881"/><use xlink:href="#10" y="26.052"/><use xlink:href="#18" y="28.223"/><use xlink:href="#20" y="30.394"/><use xlink:href="#14" y="32.565"/><use xlink:href="#21" y="34.736"/><use xlink:href="#22" y="36.907"/><use xlink:href="#23" y="39.078"/><use xlink:href="#23" y="41.249"/><use xlink:href="#17" y="43.42"/></svg><svg x="3250"><use xlink:href="#a"/><use xlink:href="#10"/><use xlink:href="#8" y="2.171"/><use xlink:href="#8" y="4.342"/><use xlink:href="#10" y="6.513"/><use xlink:href="#8" y="8.684"/><use xlink:href="#8" y="10.855"/><use xlink:href="#14" y="13.026"/><use xlink:href="#10" y="15.197"/><use xlink:href="#15" y="17.368"/><use xlink:href="#8" y="19.539"/><use xlink:href="#16" y="21.71"/><use xlink:href="#10" y="23.881"/><use xlink:href="#18" y="26.052"/><use xlink:href="#20" y="28.223"/><use xlink:href="#14" y="30.394"/><use xlink:href="#21" y="32.565"/><use xlink:href="#22" y="34.736"/><use xlink:href="#23" y="36.907"/><use xlink:href="#23" y="39.078"/><use xlink:href="#24" y="41.249"/><text y="45.09" class="j">xecuteActions</text></svg><svg x="3300"><use xlink:href="#a"/><use xlink:href="#8"/><use xlink:href="#8" y="2.171"/><use xlink:href="#10" y="4.342"/><use xlink:href="#8" y="6.513"/><use xlink:href="#8" y="8.684"/><use xlink:href="#14" y="10.855"/><use xlink:href="#10" y="13.026"/><use xlink:href="#15" y="15.197"/><use xlink:href="#8" y="17.368"/><use xlink:href="#16" y="19.539"/><use xlink:href="#10" y="21.71"/><use xlink:href="#18" y="23.881"/><use xlink:href="#20" y="26.052"/><use xlink:href="#14" y="28.223"/><use xlink:href="#21" y="30.394"/><use xlink:href="#22" y="32.565"/><use xlink:href="#23" y="34.736"/><use xlink:href="#23" y="36.907"/><use xlink:href="#24" y="39.078"/><use xlink:href="#25" y="41.249"/><use xlink:href="#26" y="43.42"/></svg><svg x="3350"><use xlink:href="#a"/><use xlink:href="#8"/><use xlink:href="#10" y="2.171"/><use xlink:href="#8" y="4.342"/><use xlink:href="#8" y="6.513"/><use xlink:href="#14" y="8.684"/><use xlink:href="#10" y="10.855"/><use xlink:href="#15" y="13.026"/><use xlink:href="#8" y="15.197"/><use xlink:href="#16" y="17.368"/><use xlink:href="#10" y="19.539"/><use xlink:href="#18" y="21.71"/><use xlink:href="#20" y="23.881"/><use xlink:href="#14" y="26.052"/><use xlink:href="#21" y="28.223"/><use xlink:href="#22" y="30.394"/><use xlink:href="#23" y="32.565"/><use xlink:href="#23" y="34.736"/><use xlink:href="#24" y="36.907"/><use xlink:href="#25" y="39.078"/><use xlink:href="#25" y="41.249"/><use xlink:href="#26" y="43.42"/></svg><svg x="3400"><use xlink:href="#a"/><use xlink:href="#10"/><use xlink:href="#8" y="2.171"/><use xlink:href="#8" y="4.342"/><use xlink:href="#14" y="6.513"/><use xlink:href="#10" y="8.684"/><use xlink:href="#15" y="10.855"/><use xlink:href="#8" y="13.026"/><use xlink:href="#16" y="15.197"/><use xlink:href="#10" y="17.368"/><use xlink:href="#18" y="19.539"/><use xlink:href="#20" y="21.71"/><use xlink:href="#14" y="23.881"/><use xlink:href="#21" y="26.052"/><use xlink:href="#22" y="28.223"/><use xlink:href="#23" y="30.394"/><use xlink:href="#23" y="32.565"/><use xlink:href="#24" y="34.736"/><use xlink:href="#25" y="36.907"/><use xlink:href="#25" y="39.078"/><use xlink:href="#25" y="41.249"/><use xlink:href="#26" y="43.42"/></svg><svg x="3450"><use xlink:href="#a"/><use xlink:href="#8"/><use xlink:href="#8" y="2.171"/><use xlink:href="#14" y="4.342"/><use xlink:href="#10" y="6.513"/><use xlink:href="#15" y="8.684"/><use xlink:href="#8" y="10.855"/><use xlink:href="#16" y="13.026"/><use xlink:href="#10" y="15.197"/><use xlink:href="#18" y="17.368"/><use xlink:href="#20" y="19.539"/><use xlink:href="#14" y="21.71"/><use xlink:href="#21" y="23.881"/><use xlink:href="#22" y="26.052"/><use xlink:href="#23" y="28.223"/><use xlink:href="#23" y="30.394"/><use xlink:href="#24" y="32.565"/><use xlink:href="#25" y="34.736"/><use xlink:href="#25" y="36.907"/><use xlink:href="#25" y="39.078"/><use xlink:href="#27" y="41.249"/><text y="45.09" class="j">inalize</text><text x="8.016" y="45.09" class="j">/home/lu</text></svg><svg x="3500"><use xlink:href="#a"/><use xlink:href="#8"/><use xlink:href="#14" y="2.171"/><use xlink:href="#10" y="4.342"/><use xlink:href="#15" y="6.513"/><use xlink:href="#8" y="8.684"/><use xlink:href="#16" y="10.855"/><use xlink:href="#10" y="13.026"/><use xlink:href="#18" y="15.197"/><use xlink:href="#20" y="17.368"/><use xlink:href="#14" y="19.539"/><use xlink:href="#21" y="21.71"/><use xlink:href="#22" y="23.881"/><use xlink:href="#23" y="26.052"/><use xlink:href="#23" y="28.223"/><use xlink:href="#24" y="30.394"/><use xlink:href="#25" y="32.565"/><use xlink:href="#25" y="34.736"/><use xlink:href="#25" y="36.907"/><use xlink:href="#27" y="39.078"/><use xlink:href="#28" y="41.249"/><use xlink:href="#29" y="43.42"/></svg><svg x="3550"><use xlink:href="#a"/><use xlink:href="#14"/><use xlink:href="#10" y="2.171"/><use xlink:href="#15" y="4.342"/><use xlink:href="#8" y="6.513"/><use xlink:href="#16" y="8.684"/><use xlink:href="#10" y="10.855"/><use xlink:href="#18" y="13.026"/><use xlink:href="#20" y="15.197"/><use xlink:href="#14" y="17.368"/><use xlink:href="#21" y="19.539"/><use xlink:href="#22" y="21.71"/><use xlink:href="#23" y="23.881"/><use xlink:href="#23" y="26.052"/><use xlink:href="#24" y="28.223"/><use xlink:href="#25" y="30.394"/><use xlink:href="#25" y="32.565"/><use xlink:href="#25" y="34.736"/><use xlink:href="#27" y="36.907"/><use xlink:href="#28" y="39.078"/><use xlink:href="#28" y="41.249"/><use xlink:href="#29" y="43.42"/></svg><svg x="3600"><use xlink:href="#a"/><use xlink:href="#b" x="-.004" y="43.395"/><use xlink:href="#14"/><use xlink:href="#10" y="2.171"/><use xlink:href="#15" y="4.342"/><use xlink:href="#8" y="6.513"/><use xlink:href="#16" y="8.684"/><use xlink:href="#10" y="10.855"/><use xlink:href="#18" y="13.026"/><use xlink:href="#20" y="15.197"/><use xlink:href="#14" y="17.368"/><use xlink:href="#21" y="19.539"/><use xlink:href="#22" y="21.71"/><use xlink:href="#23" y="23.881"/><use xlink:href="#23" y="26.052"/><use xlink:href="#24" y="28.223"/><use xlink:href="#25" y="30.394"/><use xlink:href="#25" y="32.565"/><use xlink:href="#25" y="34.736"/><use xlink:href="#27" y="36.907"/><use xlink:href="#28" y="39.078"/><use xlink:href="#28" y="41.249"/></svg><svg x="3650"><use xlink:href="#a"/><use xlink:href="#b" x="-.004" y="43.395"/><use xlink:href="#10"/><use xlink:href="#15" y="2.171"/><use xlink:href="#8" y="4.342"/><use xlink:href="#16" y="6.513"/><use xlink:href="#10" y="8.684"/><use xlink:href="#18" y="10.855"/><use xlink:href="#20" y="13.026"/><use xlink:href="#14" y="15.197"/><use xlink:href="#21" y="17.368"/><use xlink:href="#22" y="19.539"/><use xlink:href="#23" y="21.71"/><use xlink:href="#23" y="23.881"/><use xlink:href="#24" y="26.052"/><use xlink:href="#25" y="28.223"/><use xlink:href="#25" y="30.394"/><use xlink:href="#25" y="32.565"/><use xlink:href="#27" y="34.736"/><use xlink:href="#28" y="36.907"/><use xlink:href="#28" y="39.078"/><use xlink:href="#30" y="41.249"/></svg><svg x="3700"><use xlink:href="#a"/><use xlink:href="#b" x="-.004" y="43.395"/><use xlink:href="#15"/><use xlink:href="#8" y="2.171"/><use xlink:href="#16" y="4.342"/><use xlink:href="#10" y="6.513"/><use xlink:href="#18" y="8.684"/><use xlink:href="#20" y="10.855"/><use xlink:href="#14" y="13.026"/><use xlink:href="#21" y="15.197"/><use xlink:href="#22" y="17.368"/><use xlink:href="#23" y="19.539"/><use xlink:href="#23" y="21.71"/><use xlink:href="#24" y="23.881"/><use xlink:href="#25" y="26.052"/><use xlink:href="#25" y="28.223"/><use xlink:href="#25" y="30.394"/><use xlink:href="#27" y="32.565"/><use xlink:href="#28" y="34.736"/><use xlink:href="#28" y="36.907"/><use xlink:href="#30" y="39.078"/><use xlink:href="#31" y="41.249"/></svg><svg x="3750"><use xlink:href="#a"/><use xlink:href="#b" x="-.004" y="43.395"/><use xlink:href="#10"/><use xlink:href="#18" y="2.171"/><use xlink:href="#20" y="4.342"/><use xlink:href="#14" y="6.513"/><use xlink:href="#21" y="8.684"/><use xlink:href="#22" y="10.855"/><use xlink:href="#23" y="13.026"/><use xlink:href="#23" y="15.197"/><use xlink:href="#24" y="17.368"/><use xlink:href="#25" y="19.539"/><use xlink:href="#25" y="21.71"/><use xlink:href="#25" y="23.881"/><use xlink:href="#27" y="26.052"/><use xlink:href="#28" y="28.223"/><use xlink:href="#28" y="30.394"/><use xlink:href="#30" y="32.565"/><use xlink:href="#31" y="34.736"/><use xlink:href="#32" y="36.907"/><use xlink:href="#33" y="39.078"/></svg><svg x="3800"><use xlink:href="#a"/><use xlink:href="#b" x="-.004" y="43.395"/><use xlink:href="#32"/><use xlink:href="#33" y="2.171"/><use xlink:href="#34" y="6.513"/><use xlink:href="#35" y="8.684"/><use xlink:href="#36" y="10.855"/><use xlink:href="#37" y="13.026"/><use xlink:href="#38" y="15.197"/><use xlink:href="#39" y="17.368"/><use xlink:href="#40" y="19.539"/><use xlink:href="#41" y="21.71"/><use xlink:href="#42" y="23.881"/><use xlink:href="#43" y="26.052"/><use xlink:href="#44" y="28.223"/><use xlink:href="#45" y="30.394"/><use xlink:href="#46" y="34.736"/><use xlink:href="#47" y="36.907"/><use xlink:href="#48" y="39.078"/><use xlink:href="#49" y="41.249"/></svg><svg x="3850"><use xlink:href="#a"/><use xlink:href="#b" x="-.004" y="43.395"/><use xlink:href="#33"/><use xlink:href="#34" y="4.342"/><use xlink:href="#35" y="6.513"/><use xlink:href="#36" y="8.684"/><use xlink:href="#37" y="10.855"/><use xlink:href="#38" y="13.026"/><use xlink:href="#39" y="15.197"/><use xlink:href="#40" y="17.368"/><use xlink:href="#41" y="19.539"/><use xlink:href="#42" y="21.71"/><use xlink:href="#43" y="23.881"/><use xlink:href="#44" y="26.052"/><use xlink:href="#45" y="28.223"/><use xlink:href="#46" y="32.565"/><use xlink:href="#47" y="34.736"/><use xlink:href="#48" y="36.907"/><use xlink:href="#49" y="39.078"/><use xlink:href="#1" y="41.249"/></svg><svg x="3900"><use xlink:href="#a"/><use xlink:href="#b" x="-.004" y="43.395"/><use xlink:href="#33"/><use xlink:href="#34" y="4.342"/><use xlink:href="#35" y="6.513"/><use xlink:href="#36" y="8.684"/><use xlink:href="#37" y="10.855"/><use xlink:href="#38" y="13.026"/><use xlink:href="#39" y="15.197"/><use xlink:href="#40" y="17.368"/><use xlink:href="#41" y="19.539"/><use xlink:href="#42" y="21.71"/><use xlink:href="#43" y="23.881"/><use xlink:href="#44" y="26.052"/><use xlink:href="#45" y="28.223"/><use xlink:href="#46" y="32.565"/><use xlink:href="#47" y="34.736"/><use xlink:href="#48" y="36.907"/><use xlink:href="#49" y="39.078"/><use xlink:href="#1" y="41.249"/></svg><svg x="3950"><use xlink:href="#a"/><use xlink:href="#b" x="4.996" y="43.395"/><use xlink:href="#33"/><use xlink:href="#34" y="4.342"/><use xlink:href="#35" y="6.513"/><use xlink:href="#36" y="8.684"/><use xlink:href="#37" y="10.855"/><use xlink:href="#38" y="13.026"/><use xlink:href="#39" y="15.197"/><use xlink:href="#40" y="17.368"/><use xlink:href="#41" y="19.539"/><use xlink:href="#42" y="21.71"/><use xlink:href="#43" y="23.881"/><use xlink:href="#44" y="26.052"/><use xlink:href="#45" y="28.223"/><use xlink:href="#46" y="32.565"/><use xlink:href="#47" y="34.736"/><use xlink:href="#48" y="36.907"/><use xlink:href="#49" y="39.078"/><use xlink:href="#1" y="41.249"/><use xlink:href="#2" y="43.42"/></svg><svg x="4000"><use xlink:href="#a"/><use xlink:href="#b" x="4.996" y="43.395"/><use xlink:href="#33"/><use xlink:href="#34" y="4.342"/><use xlink:href="#35" y="6.513"/><use xlink:href="#36" y="8.684"/><use xlink:href="#37" y="10.855"/><use xlink:href="#38" y="13.026"/><use xlink:href="#39" y="15.197"/><use xlink:href="#40" y="17.368"/><use xlink:href="#41" y="19.539"/><use xlink:href="#42" y="21.71"/><use xlink:href="#43" y="23.881"/><use xlink:href="#44" y="26.052"/><use xlink:href="#45" y="28.223"/><use xlink:href="#46" y="32.565"/><use xlink:href="#47" y="34.736"/><use xlink:href="#48" y="36.907"/><use xlink:href="#49" y="39.078"/><use xlink:href="#1" y="41.249"/><use xlink:href="#2" y="43.42"/></svg><svg x="4050"><use xlink:href="#a"/><use xlink:href="#b" x="-.004" y="43.395"/><use xlink:href="#34" y="2.171"/><use xlink:href="#35" y="4.342"/><use xlink:href="#36" y="6.513"/><use xlink:href="#37" y="8.684"/><use xlink:href="#38" y="10.855"/><use xlink:href="#39" y="13.026"/><use xlink:href="#40" y="15.197"/><use xlink:href="#41" y="17.368"/><use xlink:href="#42" y="19.539"/><use xlink:href="#43" y="21.71"/><use xlink:href="#44" y="23.881"/><use xlink:href="#45" y="26.052"/><use xlink:href="#46" y="30.394"/><use xlink:href="#47" y="32.565"/><use xlink:href="#48" y="34.736"/><use xlink:href="#49" y="36.907"/><use xlink:href="#1" y="39.078"/><use xlink:href="#2" y="41.249"/></svg></svg></g></g></svg></svg>