<svg xmlns="http://www.w3.org/2000/svg" xmlns:xlink="http://www.w3.org/1999/xlink" width="410" height="521.04"><rect width="410" height="521.04" rx="0" ry="0" class="a"/><svg height="521.04" viewBox="0 0 41 52.104" width="410" xmlns="http://www.w3.org/2000/svg" xmlns:xlink="http://www.w3.org/1999/xlink"><style>@keyframes u{0%{transform:translateX(0)}6.2%{transform:translateX(-82px)}6.4%{transform:translateX(-164px)}11%{transform:translateX(-205px)}17.7%{transform:translateX(-246px)}24.3%{transform:translateX(-287px)}31.9%{transform:translateX(-328px)}32%{transform:translateX(-410px)}64.1%{transform:translateX(-615px)}64.2%{transform:translateX(-697px)}64.4%{transform:translateX(-779px)}64.6%{transform:translateX(-861px)}to{transform:translateX(-902px)}}.a{fill:#282d35}.c,.d{white-space:pre}.c{fill:#a8cc8c;font-weight:700}.d{fill:#66c2cd}.d,.e,.f{font-weight:700}.e{fill:#71bef2;white-space:pre}.f{fill:#e88388}.f,.g,.h{white-space:pre}.g{fill:#dbab79;font-weight:700}.h{fill:#b9c0cb}.i,.j,.l,.n,.o,.p{fill:#dbab79;white-space:pre}.j,.l,.n,.o,.p{fill:#e88388}.l,.n,.o,.p{fill:#66c2cd}.n,.o,.p{fill:#73bef3}.o,.p{fill:#71bef2}.p{fill:#d290e4}</style><g font-family="Monaco,Consolas,Menlo,'Bitstream Vera Sans Mono','Powerline Symbols',monospace" font-size="1.67"><defs><symbol id="1"><text y="1.67" class="c">➜</text><text x="3.006" y="1.67" class="d">cli</text><text x="7.014" y="1.67" class="e">git:(</text><text x="12.024" y="1.67" class="f">feat/index</text><text x="22.044" y="1.67" class="e">)</text><text x="24.048" y="1.67" class="g">✗</text></symbol><symbol id="2"><text y="1.67" class="c">➜</text><text x="3.006" y="1.67" class="d">cli</text><text x="7.014" y="1.67" class="e">git:(</text><text x="12.024" y="1.67" class="f">feat/index</text><text x="22.044" y="1.67" class="e">)</text><text x="24.048" y="1.67" class="g">✗</text><text x="26.052" y="1.67" class="h">./bin/run</text><text x="36.072" y="1.67" class="h">afb23</text></symbol><symbol id="3"><text y="1.67" class="h">1</text></symbol><symbol id="4"><text x="4.008" y="1.67" class="i">VVVXRRRRVYYV</text></symbol><symbol id="5"><text x="2.004" y="1.67" class="i">i</text><text x="3.006" y="1.67" class="i">YVVVVXRRXYYYYY</text><text x="17.034" y="1.67" class="j">I</text></symbol><symbol id="6"><text x="1.002" y="1.67" class="i">iiit</text><text x="5.01" y="1.67" class="i">YVV</text><text x="12.024" y="1.67" class="i">VYY</text><text x="15.03" y="1.67" class="j">IIII</text></symbol><symbol id="7"><text y="1.67" style="white-space:pre" fill="#6f7783">i</text><text x="1.002" y="1.67" class="i">iiii</text><text x="15.03" y="1.67" class="j">IIIII</text></symbol><symbol id="8"><text y="1.67" class="l">tttt</text><text x="15.03" y="1.67" style="white-space:pre" fill="#fff">X</text><text x="16.032" y="1.67" class="j">tttt</text></symbol><symbol id="9"><text y="1.67" class="l">tttt</text><text x="15.03" y="1.67" class="i">+</text><text x="16.032" y="1.67" class="j">tttt</text></symbol><symbol id="10"><text y="1.67" class="n">tiiii</text><text x="15.03" y="1.67" class="j">iiiii</text></symbol><symbol id="11"><text x="1.002" y="1.67" class="n">iiii</text><text x="5.01" y="1.67" class="o">==</text><text x="7.014" y="1.67" class="p">+</text><text x="12.024" y="1.67" class="p">i</text><text x="13.026" y="1.67" class="j">++</text><text x="15.03" y="1.67" class="j">iiii</text></symbol><symbol id="12"><text x="2.004" y="1.67" class="n">t</text><text x="3.006" y="1.67" class="o">=====</text><text x="8.016" y="1.67" class="p">+iii</text><text x="12.024" y="1.67" class="j">+++++</text><text x="17.034" y="1.67" class="j">i</text></symbol><symbol id="13"><text x="4.008" y="1.67" class="o">+==</text><text x="7.014" y="1.67" class="p">+iiii+</text><text x="13.026" y="1.67" class="j">++</text><text x="15.03" y="1.67" class="p">+</text></symbol><symbol id="14"><text y="1.67" class="h">Theme</text><text x="6.012" y="1.67" class="h">Color</text><text x="12.024" y="1.67" class="h">Shades</text><text x="19.038" y="1.67" class="h">0.0.1</text></symbol><symbol id="15"><text y="1.67" class="h">Hello!</text><text x="7.014" y="1.67" class="h">Here</text><text x="12.024" y="1.67" class="h">is</text><text x="15.03" y="1.67" class="h">your</text><text x="20.04" y="1.67" class="h">requested</text><text x="30.06" y="1.67" class="h">shades</text><text x="37.074" y="1.67" class="h">usin</text></symbol><symbol id="16"><text y="1.67" class="h">g</text><path fill="#afb231" d="M2.004 0h6v2.171h-6z"/><text x="2.004" y="1.67" style="white-space:pre" fill="#282d35">afb231</text><text x="9.018" y="1.67" class="h">as</text><text x="12.024" y="1.67" class="h">reference:</text></symbol><symbol id="17"><text y="1.67" class="h">{</text></symbol><symbol id="18"><text x="2.004" y="1.67" class="h">&quot;50&quot;:</text><text x="8.016" y="1.67" class="h">&quot;#fbfbe9&quot;,</text></symbol><symbol id="19"><text x="2.004" y="1.67" class="h">&quot;100&quot;:</text><text x="9.018" y="1.67" class="h">&quot;#f2f2bf&quot;,</text></symbol><symbol id="20"><text x="2.004" y="1.67" class="h">&quot;200&quot;:</text><text x="9.018" y="1.67" class="h">&quot;#e6e798&quot;,</text></symbol><symbol id="21"><text x="2.004" y="1.67" class="h">&quot;300&quot;:</text><text x="9.018" y="1.67" class="h">&quot;#d4d676&quot;,</text></symbol><symbol id="22"><text x="2.004" y="1.67" class="h">&quot;400&quot;:</text><text x="9.018" y="1.67" class="h">&quot;#c4c752&quot;,</text></symbol><symbol id="23"><text x="2.004" y="1.67" class="h">&quot;500&quot;:</text><text x="9.018" y="1.67" class="h">&quot;#aaad38&quot;,</text></symbol><symbol id="24"><text x="2.004" y="1.67" class="h">&quot;600&quot;:</text><text x="9.018" y="1.67" class="h">&quot;#848929&quot;,</text></symbol><symbol id="25"><text x="2.004" y="1.67" class="h">&quot;700&quot;:</text><text x="9.018" y="1.67" class="h">&quot;#616718&quot;,</text></symbol><symbol id="26"><text x="2.004" y="1.67" class="h">&quot;800&quot;:</text><text x="9.018" y="1.67" class="h">&quot;#3a400d&quot;,</text></symbol><symbol id="27"><text x="2.004" y="1.67" class="h">&quot;900&quot;:</text><text x="9.018" y="1.67" class="h">&quot;#131604&quot;</text></symbol><symbol id="28"><text y="1.67" class="h">}</text></symbol><symbol id="29"><text y="1.67" class="h">Wanna</text><text x="6.012" y="1.67" class="h">see</text><text x="10.02" y="1.67" class="h">how</text><text x="14.028" y="1.67" class="h">these</text><text x="20.04" y="1.67" class="h">shades</text><text x="27.054" y="1.67" class="h">play</text><text x="32.064" y="1.67" class="h">out</text><text x="36.072" y="1.67" class="h">in</text><text x="39.078" y="1.67" class="h">so</text></symbol><symbol id="30"><text y="1.67" class="h">me</text><text x="3.006" y="1.67" class="h">components</text><text x="14.028" y="1.67" class="h">before</text><text x="21.042" y="1.67" class="h">using?</text></symbol><symbol id="31"><text y="1.67" class="h">Check</text><text x="6.012" y="1.67" class="h">it</text><text x="9.018" y="1.67" class="h">out</text><text x="13.026" y="1.67" class="h">here:</text><text x="19.038" y="1.67" class="h">http://localhost:8000/</text></symbol><symbol id="32"><text y="1.67" class="h">components/?color=afb231</text></symbol><symbol id="a"><path fill="transparent" d="M0 0h41v24H0z"/></symbol><symbol id="b"><path fill="#6f7683" d="M0 0h1.102v2.171H0z"/></symbol></defs><path class="a" d="M0 0h41v52.104H0z"/><g style="animation-duration:6.300419s;animation-iteration-count:infinite;animation-name:u;animation-timing-function:steps(1,end)"><svg width="943"><svg><use xlink:href="#a"/><use xlink:href="#b" x="-.004"/></svg><svg x="41"><use xlink:href="#a"/><use xlink:href="#b" x="-.004"/></svg><svg x="82"><use xlink:href="#a"/><use xlink:href="#b" x="-.004"/></svg><svg x="123"><use xlink:href="#a"/><use xlink:href="#b" x="25.996"/><use xlink:href="#1"/></svg><svg x="164"><use xlink:href="#a"/><use xlink:href="#b" x="25.996"/><use xlink:href="#1"/></svg><svg x="205"><use xlink:href="#a"/><use xlink:href="#b" x="21.996" y="2.146"/><text y="1.67" class="c">➜</text><text x="3.006" y="1.67" class="d">cli</text><text x="7.014" y="1.67" class="e">git:(</text><text x="12.024" y="1.67" class="f">feat/index</text><text x="22.044" y="1.67" class="e">)</text><text x="24.048" y="1.67" class="g">✗</text><text x="26.052" y="1.67" class="h">asciinema</text><text x="36.072" y="1.67" class="h">rec</text><text x="40.08" y="1.67" class="h">t</text><text y="3.841" class="h">est</text><text x="4.008" y="3.841" class="h">--overwrite</text><text x="16.032" y="3.841" class="h">-c</text><text x="19.038" y="3.841" class="h">zsh</text></svg><svg x="246"><use xlink:href="#a"/><use xlink:href="#b" x="15.996" y="2.146"/><text y="1.67" class="c">➜</text><text x="3.006" y="1.67" class="d">cli</text><text x="7.014" y="1.67" class="e">git:(</text><text x="12.024" y="1.67" class="f">feat/index</text><text x="22.044" y="1.67" class="e">)</text><text x="24.048" y="1.67" class="g">✗</text><text x="26.052" y="1.67" class="h">cat</text><text x="30.06" y="1.67" class="h">test</text><text x="35.07" y="1.67" class="h">|</text><text x="37.074" y="1.67" class="h">svg-</text><text y="3.841" class="h">term</text><text x="5.01" y="3.841" class="h">--out</text><text x="11.022" y="3.841" class="h">r.svg</text></svg><svg x="287"><use xlink:href="#a"/><use xlink:href="#b" x=".996" y="2.146"/><use xlink:href="#2"/><use xlink:href="#3" y="2.171"/></svg><svg x="328"><use xlink:href="#a"/><use xlink:href="#b" x=".996" y="2.146"/><use xlink:href="#2"/><use xlink:href="#3" y="2.171"/></svg><svg x="369"><use xlink:href="#a"/><use xlink:href="#b" x="-.004" y="4.317"/><use xlink:href="#2"/><use xlink:href="#3" y="2.171"/></svg><svg x="410"><use xlink:href="#a"/><use xlink:href="#b" x="-.004" y="4.317"/><use xlink:href="#2"/><use xlink:href="#3" y="2.171"/></svg><svg x="451"><use xlink:href="#a"/><use xlink:href="#b" x="1.996" y="21.685"/><use xlink:href="#2"/><use xlink:href="#3" y="2.171"/><use xlink:href="#4" y="4.342"/><use xlink:href="#5" y="6.513"/><use xlink:href="#6" y="8.684"/><use xlink:href="#7" y="10.855"/><use xlink:href="#8" y="13.026"/><use xlink:href="#9" y="15.197"/><use xlink:href="#10" y="17.368"/><use xlink:href="#11" y="19.539"/></svg><svg x="492"><use xlink:href="#a"/><use xlink:href="#b" x="-.004" y="28.198"/><use xlink:href="#2"/><use xlink:href="#3" y="2.171"/><use xlink:href="#4" y="4.342"/><use xlink:href="#5" y="6.513"/><use xlink:href="#6" y="8.684"/><use xlink:href="#7" y="10.855"/><use xlink:href="#8" y="13.026"/><use xlink:href="#9" y="15.197"/><use xlink:href="#10" y="17.368"/><use xlink:href="#11" y="19.539"/><use xlink:href="#12" y="21.71"/><use xlink:href="#13" y="23.881"/></svg><svg x="533"><use xlink:href="#a"/><use xlink:href="#b" x="24.996" y="28.198"/><use xlink:href="#2"/><use xlink:href="#3" y="2.171"/><use xlink:href="#4" y="4.342"/><use xlink:href="#5" y="6.513"/><use xlink:href="#6" y="8.684"/><use xlink:href="#7" y="10.855"/><use xlink:href="#8" y="13.026"/><use xlink:href="#9" y="15.197"/><use xlink:href="#10" y="17.368"/><use xlink:href="#11" y="19.539"/><use xlink:href="#12" y="21.71"/><use xlink:href="#13" y="23.881"/><use xlink:href="#14" y="28.223"/></svg><svg x="574"><use xlink:href="#a"/><use xlink:href="#b" x="-.004" y="30.369"/><use xlink:href="#2"/><use xlink:href="#3" y="2.171"/><use xlink:href="#4" y="4.342"/><use xlink:href="#5" y="6.513"/><use xlink:href="#6" y="8.684"/><use xlink:href="#7" y="10.855"/><use xlink:href="#8" y="13.026"/><use xlink:href="#9" y="15.197"/><use xlink:href="#10" y="17.368"/><use xlink:href="#11" y="19.539"/><use xlink:href="#12" y="21.71"/><use xlink:href="#13" y="23.881"/><use xlink:href="#14" y="28.223"/></svg><svg x="615"><use xlink:href="#a"/><use xlink:href="#b" x="-.004" y="32.54"/><use xlink:href="#2"/><use xlink:href="#3" y="2.171"/><use xlink:href="#4" y="4.342"/><use xlink:href="#5" y="6.513"/><use xlink:href="#6" y="8.684"/><use xlink:href="#7" y="10.855"/><use xlink:href="#8" y="13.026"/><use xlink:href="#9" y="15.197"/><use xlink:href="#10" y="17.368"/><use xlink:href="#11" y="19.539"/><use xlink:href="#12" y="21.71"/><use xlink:href="#13" y="23.881"/><use xlink:href="#14" y="28.223"/></svg><svg x="656"><use xlink:href="#a"/><use xlink:href="#b" x="-.004" y="49.908"/><use xlink:href="#9"/><use xlink:href="#10" y="2.171"/><use xlink:href="#11" y="4.342"/><use xlink:href="#12" y="6.513"/><use xlink:href="#13" y="8.684"/><use xlink:href="#14" y="13.026"/><use xlink:href="#15" y="17.368"/><use xlink:href="#16" y="19.539"/><use xlink:href="#17" y="23.881"/><use xlink:href="#18" y="26.052"/><use xlink:href="#19" y="28.223"/><use xlink:href="#20" y="30.394"/><use xlink:href="#21" y="32.565"/><use xlink:href="#22" y="34.736"/><use xlink:href="#23" y="36.907"/><use xlink:href="#24" y="39.078"/><use xlink:href="#25" y="41.249"/><use xlink:href="#26" y="43.42"/><use xlink:href="#27" y="45.591"/><use xlink:href="#28" y="47.762"/></svg><svg x="697"><use xlink:href="#a"/><use xlink:href="#b" x="-.004" y="49.908"/><use xlink:href="#14" y="2.171"/><use xlink:href="#15" y="6.513"/><use xlink:href="#16" y="8.684"/><use xlink:href="#17" y="13.026"/><use xlink:href="#18" y="15.197"/><use xlink:href="#19" y="17.368"/><use xlink:href="#20" y="19.539"/><use xlink:href="#21" y="21.71"/><use xlink:href="#22" y="23.881"/><use xlink:href="#23" y="26.052"/><use xlink:href="#24" y="28.223"/><use xlink:href="#25" y="30.394"/><use xlink:href="#26" y="32.565"/><use xlink:href="#27" y="34.736"/><use xlink:href="#28" y="36.907"/><use xlink:href="#29" y="41.249"/><use xlink:href="#30" y="43.42"/><use xlink:href="#31" y="45.591"/><use xlink:href="#32" y="47.762"/></svg><svg x="738"><use xlink:href="#a"/><use xlink:href="#b" x="-.004" y="49.908"/><use xlink:href="#14" y="2.171"/><use xlink:href="#15" y="6.513"/><use xlink:href="#16" y="8.684"/><use xlink:href="#17" y="13.026"/><use xlink:href="#18" y="15.197"/><use xlink:href="#19" y="17.368"/><use xlink:href="#20" y="19.539"/><use xlink:href="#21" y="21.71"/><use xlink:href="#22" y="23.881"/><use xlink:href="#23" y="26.052"/><use xlink:href="#24" y="28.223"/><use xlink:href="#25" y="30.394"/><use xlink:href="#26" y="32.565"/><use xlink:href="#27" y="34.736"/><use xlink:href="#28" y="36.907"/><use xlink:href="#29" y="41.249"/><use xlink:href="#30" y="43.42"/><use xlink:href="#31" y="45.591"/><use xlink:href="#32" y="47.762"/></svg><svg x="779"><use xlink:href="#a"/><use xlink:href="#b" x="-.004" y="49.908"/><use xlink:href="#14" y="2.171"/><use xlink:href="#15" y="6.513"/><use xlink:href="#16" y="8.684"/><use xlink:href="#17" y="13.026"/><use xlink:href="#18" y="15.197"/><use xlink:href="#19" y="17.368"/><use xlink:href="#20" y="19.539"/><use xlink:href="#21" y="21.71"/><use xlink:href="#22" y="23.881"/><use xlink:href="#23" y="26.052"/><use xlink:href="#24" y="28.223"/><use xlink:href="#25" y="30.394"/><use xlink:href="#26" y="32.565"/><use xlink:href="#27" y="34.736"/><use xlink:href="#28" y="36.907"/><use xlink:href="#29" y="41.249"/><use xlink:href="#30" y="43.42"/><use xlink:href="#31" y="45.591"/><use xlink:href="#32" y="47.762"/></svg><svg x="820"><use xlink:href="#a"/><use xlink:href="#b" x="25.996" y="49.908"/><use xlink:href="#14" y="2.171"/><use xlink:href="#15" y="6.513"/><use xlink:href="#16" y="8.684"/><use xlink:href="#17" y="13.026"/><use xlink:href="#18" y="15.197"/><use xlink:href="#19" y="17.368"/><use xlink:href="#20" y="19.539"/><use xlink:href="#21" y="21.71"/><use xlink:href="#22" y="23.881"/><use xlink:href="#23" y="26.052"/><use xlink:href="#24" y="28.223"/><use xlink:href="#25" y="30.394"/><use xlink:href="#26" y="32.565"/><use xlink:href="#27" y="34.736"/><use xlink:href="#28" y="36.907"/><use xlink:href="#29" y="41.249"/><use xlink:href="#30" y="43.42"/><use xlink:href="#31" y="45.591"/><use xlink:href="#32" y="47.762"/><use xlink:href="#1" y="49.933"/></svg><svg x="861"><use xlink:href="#a"/><use xlink:href="#b" x="25.996" y="49.908"/><use xlink:href="#14" y="2.171"/><use xlink:href="#15" y="6.513"/><use xlink:href="#16" y="8.684"/><use xlink:href="#17" y="13.026"/><use xlink:href="#18" y="15.197"/><use xlink:href="#19" y="17.368"/><use xlink:href="#20" y="19.539"/><use xlink:href="#21" y="21.71"/><use xlink:href="#22" y="23.881"/><use xlink:href="#23" y="26.052"/><use xlink:href="#24" y="28.223"/><use xlink:href="#25" y="30.394"/><use xlink:href="#26" y="32.565"/><use xlink:href="#27" y="34.736"/><use xlink:href="#28" y="36.907"/><use xlink:href="#29" y="41.249"/><use xlink:href="#30" y="43.42"/><use xlink:href="#31" y="45.591"/><use xlink:href="#32" y="47.762"/><use xlink:href="#1" y="49.933"/></svg><svg x="902"><use xlink:href="#a"/><use xlink:href="#b" x="-.004" y="49.908"/><use xlink:href="#14"/><use xlink:href="#15" y="4.342"/><use xlink:href="#16" y="6.513"/><use xlink:href="#17" y="10.855"/><use xlink:href="#18" y="13.026"/><use xlink:href="#19" y="15.197"/><use xlink:href="#20" y="17.368"/><use xlink:href="#21" y="19.539"/><use xlink:href="#22" y="21.71"/><use xlink:href="#23" y="23.881"/><use xlink:href="#24" y="26.052"/><use xlink:href="#25" y="28.223"/><use xlink:href="#26" y="30.394"/><use xlink:href="#27" y="32.565"/><use xlink:href="#28" y="34.736"/><use xlink:href="#29" y="39.078"/><use xlink:href="#30" y="41.249"/><use xlink:href="#31" y="43.42"/><use xlink:href="#32" y="45.591"/><use xlink:href="#1" y="47.762"/></svg></svg></g></g></svg></svg>